<?xml version="1.0" standalone="no"?>
<!DOCTYPE svg PUBLIC "-//W3C//DTD SVG 20010904//EN"
 "http://www.w3.org/TR/2001/REC-SVG-20010904/DTD/svg10.dtd">
<svg version="1.0" xmlns="http://www.w3.org/2000/svg"
 width="700.000000pt" height="700.000000pt" viewBox="0 0 700.000000 700.000000"
 preserveAspectRatio="xMidYMid meet">
<metadata>
Created by potrace 1.11, written by Peter Selinger 2001-2013
</metadata>
<g transform="translate(0.000000,700.000000) scale(0.100000,-0.100000)"
fill="#000000" stroke="none">
<path d="M3278 6995 c-1 -1 -41 -5 -88 -9 -47 -4 -101 -9 -120 -12 -35 -4
-152 -22 -200 -30 -26 -4 -234 -51 -285 -64 -297 -78 -656 -235 -930 -404
-626 -388 -1131 -991 -1405 -1677 -66 -165 -142 -408 -165 -530 -3 -13 -12
-58 -20 -99 -8 -41 -17 -89 -19 -105 -3 -17 -7 -46 -11 -66 -21 -123 -30 -282
-30 -504 0 -194 7 -329 20 -406 2 -13 6 -46 9 -74 9 -78 22 -152 51 -285 20
-95 98 -366 115 -400 5 -8 25 -60 45 -115 50 -132 180 -398 250 -508 30 -49
55 -92 55 -97 0 -4 3 -10 8 -12 4 -2 33 -41 64 -88 101 -152 259 -339 428
-508 225 -224 531 -448 830 -605 240 -126 611 -262 853 -313 101 -21 216 -41
277 -49 25 -3 56 -7 69 -10 135 -26 700 -26 839 0 16 3 104 15 147 20 207 27
586 139 842 251 123 53 316 152 365 186 14 10 29 18 32 18 4 0 12 5 19 10 7 6
55 38 107 72 52 34 107 71 121 82 15 12 39 30 55 41 155 110 362 304 554 520
187 210 416 572 534 845 16 36 36 83 46 105 54 123 147 418 176 560 16 77 54
301 60 350 4 33 9 76 11 95 8 70 10 517 3 595 -13 131 -21 202 -25 227 -3 13
-8 43 -11 68 -3 25 -9 61 -14 80 -5 19 -12 51 -15 70 -12 71 -65 268 -100 375
-291 875 -916 1605 -1728 2019 -334 170 -726 299 -1037 341 -19 3 -46 7 -60
10 -13 2 -54 7 -90 11 -36 3 -78 8 -95 11 -33 5 -531 13 -537 8z m457 -319
c55 -3 111 -8 125 -10 14 -3 48 -7 75 -11 91 -10 218 -36 355 -70 554 -140
1045 -419 1455 -830 77 -77 149 -151 160 -165 227 -280 324 -426 449 -678 151
-302 269 -684 301 -977 4 -28 8 -61 10 -75 23 -130 23 -570 0 -730 -20 -133
-29 -187 -47 -275 -71 -351 -201 -685 -389 -998 -72 -119 -217 -325 -259 -367
-3 -3 -32 -36 -64 -75 -139 -163 -354 -361 -541 -496 -201 -146 -480 -299
-695 -381 -118 -45 -134 -51 -140 -53 -3 -1 -43 -13 -90 -28 -154 -48 -371
-97 -505 -113 -27 -3 -61 -7 -75 -9 -170 -24 -547 -24 -720 0 -19 2 -57 7 -85
11 -45 5 -244 43 -302 57 -399 97 -777 271 -1127 521 -104 74 -274 221 -386
335 -402 407 -678 889 -823 1441 -26 97 -42 173 -53 245 -3 22 -7 42 -9 45 -2
3 -6 34 -10 69 -4 34 -8 72 -10 83 -23 117 -23 576 -1 718 2 14 7 48 10 75 58
470 263 991 549 1395 201 285 477 564 747 756 224 159 422 268 668 368 96 39
303 109 357 120 11 3 65 16 120 29 55 14 120 28 145 32 25 4 54 9 65 11 11 2
43 7 71 9 28 3 61 8 74 10 13 2 64 7 114 11 50 3 92 7 93 7 4 5 300 -1 388 -7z"/>
<path d="M2290 4929 c-36 -4 -89 -11 -118 -14 -78 -9 -218 -52 -284 -87 -124
-66 -237 -199 -298 -350 -40 -102 -57 -186 -58 -300 -2 -249 97 -452 293 -598
102 -76 297 -148 450 -166 22 -3 41 -7 42 -8 2 -2 -24 -17 -57 -34 -115 -61
-191 -126 -312 -269 -80 -93 -152 -201 -443 -658 -98 -154 -184 -289 -191
-300 -13 -21 -13 -21 223 -20 148 0 238 4 240 10 2 6 37 62 78 125 40 63 106
167 146 230 240 382 421 637 513 724 85 81 190 136 291 152 44 7 560 12 588 6
16 -4 17 -42 17 -627 l0 -623 633 3 c347 2 641 5 653 8 12 3 45 8 75 12 450
54 756 315 909 774 70 208 94 374 94 631 0 144 -13 314 -30 380 -3 14 -8 38
-11 54 -11 70 -68 238 -108 324 -132 279 -337 471 -600 560 -54 18 -139 37
-260 58 -58 10 -2398 13 -2475 3z m1120 -764 c0 -436 -1 -465 -17 -466 -77 -4
-911 0 -958 5 -145 15 -212 33 -298 79 -139 73 -229 241 -221 411 11 233 182
394 449 423 28 3 51 7 53 8 2 2 226 4 498 4 l494 1 0 -465z m1265 431 c16 -3
52 -8 80 -11 121 -17 240 -74 333 -160 134 -125 237 -310 267 -484 3 -19 8
-37 10 -41 2 -3 7 -35 10 -70 4 -36 9 -78 11 -95 5 -38 5 -330 0 -370 -12 -97
-19 -152 -21 -165 -1 -8 -7 -40 -14 -70 -58 -252 -188 -462 -343 -554 -64 -39
-178 -81 -244 -92 -22 -3 -57 -9 -79 -13 -62 -11 -152 -14 -520 -15 l-340 -1
-1 1076 -2 1076 412 -3 c226 -2 424 -5 441 -8z"/>
</g>
</svg>
